<svg width="34" height="25" viewBox="0 0 34 25" fill="none" xmlns="http://www.w3.org/2000/svg">
<path d="M8.75 24.4082C6.475 24.4082 4.53125 23.6207 2.91875 22.0457C1.30625 20.4707 0.5 18.5457 0.5 16.2707C0.5 14.3207 1.0875 12.5832 2.2625 11.0582C3.4375 9.5332 4.975 8.5582 6.875 8.1332C7.5 5.8332 8.75 3.9707 10.625 2.5457C12.5 1.1207 14.625 0.408203 17 0.408203C19.925 0.408203 22.4062 1.42695 24.4438 3.46445C26.4813 5.50195 27.5 7.9832 27.5 10.9082C29.225 11.1082 30.6563 11.852 31.7938 13.1395C32.9313 14.427 33.5 15.9332 33.5 17.6582C33.5 19.5332 32.8438 21.127 31.5312 22.4395C30.2188 23.752 28.625 24.4082 26.75 24.4082H8.75ZM8.75 21.4082H26.75C27.8 21.4082 28.6875 21.0457 29.4125 20.3207C30.1375 19.5957 30.5 18.7082 30.5 17.6582C30.5 16.6082 30.1375 15.7207 29.4125 14.9957C28.6875 14.2707 27.8 13.9082 26.75 13.9082H24.5V10.9082C24.5 8.8332 23.7688 7.06445 22.3063 5.60195C20.8438 4.13945 19.075 3.4082 17 3.4082C14.925 3.4082 13.1562 4.13945 11.6938 5.60195C10.2312 7.06445 9.5 8.8332 9.5 10.9082H8.75C7.3 10.9082 6.0625 11.4207 5.0375 12.4457C4.0125 13.4707 3.5 14.7082 3.5 16.1582C3.5 17.6082 4.0125 18.8457 5.0375 19.8707C6.0625 20.8957 7.3 21.4082 8.75 21.4082Z" fill="white"/>
</svg>
