<svg width="16" height="31" viewBox="0 0 16 31" fill="none" xmlns="http://www.w3.org/2000/svg">
<path d="M8 30.4082C5.925 30.4082 4.15625 29.677 2.69375 28.2145C1.23125 26.752 0.5 24.9832 0.5 22.9082C0.5 21.7082 0.7625 20.5895 1.2875 19.552C1.8125 18.5145 2.55 17.6332 3.5 16.9082V4.9082C3.5 3.6582 3.9375 2.5957 4.8125 1.7207C5.6875 0.845703 6.75 0.408203 8 0.408203C9.25 0.408203 10.3125 0.845703 11.1875 1.7207C12.0625 2.5957 12.5 3.6582 12.5 4.9082V16.9082C13.45 17.6332 14.1875 18.5145 14.7125 19.552C15.2375 20.5895 15.5 21.7082 15.5 22.9082C15.5 24.9832 14.7688 26.752 13.3063 28.2145C11.8438 29.677 10.075 30.4082 8 30.4082ZM6.5 13.9082H9.5V12.4082H8V10.9082H9.5V7.9082H8V6.4082H9.5V4.9082C9.5 4.4832 9.35625 4.12695 9.06875 3.83945C8.78125 3.55195 8.425 3.4082 8 3.4082C7.575 3.4082 7.21875 3.55195 6.93125 3.83945C6.64375 4.12695 6.5 4.4832 6.5 4.9082V13.9082Z" fill="white"/>
</svg>
