<svg width="24" height="29" viewBox="0 0 24 29" fill="none" xmlns="http://www.w3.org/2000/svg">
<path d="M12 28.6582C8.675 28.6582 5.84375 27.5082 3.50625 25.2082C1.16875 22.9082 0 20.1082 0 16.8082C0 15.2332 0.30625 13.727 0.91875 12.2895C1.53125 10.852 2.4 9.5832 3.525 8.4832L12 0.158203L20.475 8.4832C21.6 9.5832 22.4688 10.852 23.0812 12.2895C23.6938 13.727 24 15.2332 24 16.8082C24 20.1082 22.8313 22.9082 20.4938 25.2082C18.1562 27.5082 15.325 28.6582 12 28.6582ZM12 25.6582C14.5 25.6582 16.625 24.802 18.375 23.0895C20.125 21.377 21 19.2832 21 16.8082C21 15.6332 20.775 14.5145 20.325 13.452C19.875 12.3895 19.225 11.4582 18.375 10.6582L12 4.3582L5.625 10.6582C4.775 11.4582 4.125 12.3895 3.675 13.452C3.225 14.5145 3 15.6332 3 16.8082C3 19.2832 3.875 21.377 5.625 23.0895C7.375 24.802 9.5 25.6582 12 25.6582Z" fill="white"/>
</svg>
