<svg width="30" height="27" viewBox="0 0 30 27" fill="none" xmlns="http://www.w3.org/2000/svg">
<path d="M14.25 26.4082C13 26.4082 11.9375 25.9707 11.0625 25.0957C10.1875 24.2207 9.75 23.1582 9.75 21.9082H12.75C12.75 22.3332 12.8938 22.6895 13.1813 22.977C13.4688 23.2645 13.825 23.4082 14.25 23.4082C14.675 23.4082 15.0313 23.2645 15.3188 22.977C15.6063 22.6895 15.75 22.3332 15.75 21.9082C15.75 21.4832 15.6063 21.127 15.3188 20.8395C15.0313 20.552 14.675 20.4082 14.25 20.4082H0V17.4082H14.25C15.5 17.4082 16.5625 17.8457 17.4375 18.7207C18.3125 19.5957 18.75 20.6582 18.75 21.9082C18.75 23.1582 18.3125 24.2207 17.4375 25.0957C16.5625 25.9707 15.5 26.4082 14.25 26.4082ZM0 11.4082V8.4082H20.25C20.9 8.4082 21.4375 8.1957 21.8625 7.7707C22.2875 7.3457 22.5 6.8082 22.5 6.1582C22.5 5.5082 22.2875 4.9707 21.8625 4.5457C21.4375 4.1207 20.9 3.9082 20.25 3.9082C19.6 3.9082 19.0625 4.1207 18.6375 4.5457C18.2125 4.9707 18 5.5082 18 6.1582H15C15 4.6832 15.5062 3.43945 16.5187 2.42695C17.5312 1.41445 18.775 0.908203 20.25 0.908203C21.725 0.908203 22.9688 1.41445 23.9813 2.42695C24.9937 3.43945 25.5 4.6832 25.5 6.1582C25.5 7.6332 24.9937 8.87695 23.9813 9.88945C22.9688 10.902 21.725 11.4082 20.25 11.4082H0ZM24.75 23.4082V20.4082C25.4 20.4082 25.9375 20.1957 26.3625 19.7707C26.7875 19.3457 27 18.8082 27 18.1582C27 17.5082 26.7875 16.9707 26.3625 16.5457C25.9375 16.1207 25.4 15.9082 24.75 15.9082H0V12.9082H24.75C26.225 12.9082 27.4688 13.4145 28.4813 14.427C29.4938 15.4395 30 16.6832 30 18.1582C30 19.6332 29.4938 20.877 28.4813 21.8895C27.4688 22.902 26.225 23.4082 24.75 23.4082Z" fill="white"/>
</svg>
